<svg width="52" height="52" viewBox="0 0 52 52" fill="none" xmlns="http://www.w3.org/2000/svg">
<rect x="0.5" y="0.5" width="51" height="51" rx="3.5" stroke="#1F1D1D" stroke-opacity="0.2"/>
<path d="M25.9999 10C34.837 10 42 17.164 42 26.0001C42 34.8371 34.837 42 25.9999 42C17.1629 42 10 34.837 10 26.0001C10 17.164 17.163 10 25.9999 10Z" fill="#3B5998"/>
<path d="M27.948 21.0149H30.01V17.9689H27.5861V17.9799C24.649 18.0839 24.0471 19.7349 23.994 21.4689H23.988V22.99H21.988V25.9729H23.988V33.9689H27.002V25.9729H29.471L29.948 22.99H27.003V22.071C27.003 21.485 27.393 21.0149 27.948 21.0149Z" fill="white"/>
</svg>
