<svg width="52" height="52" viewBox="0 0 52 52" fill="none" xmlns="http://www.w3.org/2000/svg">
<rect x="0.5" y="0.5" width="51" height="51" rx="3.5" stroke="#1F1D1D" stroke-opacity="0.2"/>
<path d="M39.0741 23.3886H38.0001V23.3333H26.0001V28.6666H33.5354C32.4361 31.7713 29.4821 34 26.0001 34C21.5821 34 18.0001 30.418 18.0001 26C18.0001 21.582 21.5821 18 26.0001 18C28.0394 18 29.8947 18.7693 31.3074 20.026L35.0787 16.2546C32.6974 14.0353 29.5121 12.6666 26.0001 12.6666C18.6367 12.6666 12.6667 18.6366 12.6667 26C12.6667 33.3633 18.6367 39.3333 26.0001 39.3333C33.3634 39.3333 39.3334 33.3633 39.3334 26C39.3334 25.106 39.2414 24.2333 39.0741 23.3886Z" fill="#FFC107"/>
<path d="M14.204 19.794L18.5846 23.0066C19.77 20.072 22.6406 18 26 18C28.0393 18 29.8946 18.7693 31.3073 20.026L35.0786 16.2546C32.6973 14.0353 29.512 12.6666 26 12.6666C20.8786 12.6666 16.4373 15.558 14.204 19.794Z" fill="#FF3D00"/>
<path d="M26 39.3333C29.444 39.3333 32.5733 38.0153 34.9393 35.872L30.8127 32.38C29.474 33.394 27.81 34 26 34C22.532 34 19.5873 31.7886 18.478 28.7026L14.13 32.0526C16.3367 36.3706 20.818 39.3333 26 39.3333Z" fill="#4CAF50"/>
<path d="M39.074 23.3887H38V23.3334H26V28.6667H33.5353C33.0073 30.158 32.048 31.444 30.8107 32.3807C30.8113 32.38 30.812 32.38 30.8127 32.3794L34.9393 35.8714C34.6473 36.1367 39.3333 32.6667 39.3333 26C39.3333 25.106 39.2413 24.2334 39.074 23.3887Z" fill="#1976D2"/>
</svg>
