<svg width="52" height="52" viewBox="0 0 52 52" fill="none" xmlns="http://www.w3.org/2000/svg">
<rect x="0.5" y="0.5" width="51" height="51" rx="3.5" stroke="#1F1D1D" stroke-opacity="0.2"/>
<path fill-rule="evenodd" clip-rule="evenodd" d="M26 10C17.1635 10 10 17.1635 10 26C10 34.8365 17.1635 42 26 42C34.8365 42 42 34.8365 42 26C42 17.1635 34.8365 10 26 10ZM25.5544 23.5587L25.5208 23.005C25.4201 21.5701 26.3042 20.2594 27.7032 19.751C28.218 19.5702 29.0909 19.5476 29.6617 19.7058C29.8855 19.7736 30.3109 19.9995 30.613 20.2029L31.1614 20.5758L31.7657 20.3837C32.1015 20.282 32.5492 20.1125 32.7506 19.9995C32.9409 19.8979 33.1087 19.8413 33.1087 19.8753C33.1087 20.0673 32.6947 20.7227 32.3477 21.0842C31.8777 21.5927 32.012 21.6379 32.9633 21.2989C33.5341 21.1068 33.5452 21.1068 33.4333 21.3215C33.3661 21.4345 33.0192 21.8299 32.6499 22.1915C32.0231 22.8129 31.9896 22.8807 31.9896 23.4005C31.9896 24.2027 31.6091 25.8749 31.2285 26.7901C30.5235 28.5075 29.0126 30.2813 27.5017 31.1739C25.3753 32.4281 22.5438 32.7445 20.16 32.0101C19.3654 31.7615 18 31.1287 18 31.0158C18 30.9819 18.4141 30.9367 18.9177 30.9254C19.9697 30.9028 21.0217 30.609 21.9171 30.0893L22.5215 29.7277L21.8275 29.4905C20.8427 29.1515 19.9585 28.3719 19.7347 27.6375C19.6675 27.4002 19.6899 27.3889 20.3167 27.3889L20.9658 27.3776L20.4174 27.1177C19.7683 26.7901 19.1751 26.2364 18.8841 25.6715C18.6715 25.2647 18.4029 24.2365 18.4813 24.1575C18.5036 24.1236 18.7387 24.1913 19.0073 24.2817C19.7795 24.5642 19.8802 24.4964 19.4325 24.0219C18.5931 23.1632 18.3357 21.8864 18.7387 20.6775L18.9289 20.1351L19.6675 20.8695C21.1785 22.3497 22.9579 23.231 24.9948 23.4909L25.5544 23.5587Z" fill="#4BA3EB"/>
</svg>
